<svg width="39" height="38" xmlns="http://www.w3.org/2000/svg" xmlns:xlink="http://www.w3.org/1999/xlink" xml:space="preserve" overflow="hidden"><defs><clipPath id="clip0"><rect x="299" y="586" width="39" height="38"/></clipPath><linearGradient x1="14.8622" y1="1.58333" x2="14.8622" y2="34.5167" gradientUnits="userSpaceOnUse" spreadMethod="pad" id="fill1"><stop offset="0" stop-color="#5EA0EF"/><stop offset="0.18" stop-color="#5EA0EF"/><stop offset="1" stop-color="#0078D4"/></linearGradient></defs><g clip-path="url(#clip0)" transform="translate(-299 -586)"><path d="M29.5556 16.8889C29.5556 26.5578 17.8811 34.3267 15.3478 35.8889 15.0462 36.0582 14.6783 36.0582 14.3767 35.8889 11.8222 34.3056 0.147778 26.5367 0.147778 16.8889L0.147778 5.23556C0.158943 4.7389 0.558902 4.33895 1.05556 4.32778 10.1333 4.07444 8.02222 0 14.7778 0 21.5333 0 19.4856 4.01111 28.5844 4.22222 29.0727 4.24433 29.4606 4.64121 29.4711 5.13Z" fill="#5EA0EF" transform="matrix(1.02632 0 0 1 299 586)"/><path d="M28.3311 16.8889C28.3311 25.7556 17.6067 32.87 15.2844 34.3267 15.0127 34.4943 14.6696 34.4943 14.3978 34.3267 12.0756 32.9333 1.37222 25.8189 1.37222 16.8889L1.37222 6.33333C1.34739 5.89363 1.67296 5.51224 2.11111 5.46778 10.5556 5.23556 8.59222 1.58333 14.7778 1.58333 20.9633 1.58333 19.1056 5.23556 27.4444 5.46778 27.9108 5.46778 28.2889 5.84586 28.2889 6.31222Z" fill="#60B0EF" transform="matrix(1.02632 0 0 1 299 586)"/><path d="M14.7778 18.05 14.7778 1.58333C21.1111 1.58333 19.1056 5.23556 27.4444 5.46778 27.9061 5.4789 28.2777 5.85054 28.2889 6.31222L28.2889 17.9444ZM14.7778 18.05 1.41444 18.05C2.25889 26.4944 12.1811 33.0389 14.3978 34.4111 14.506 34.4774 14.6298 34.5139 14.7567 34.5167L14.7778 34.5167Z" fill="url(#fill1)" transform="matrix(1.02632 0 0 1 299 586)"/><path d="M2.11111 5.48889C10.5556 5.23556 8.59222 1.58333 14.7778 1.58333L14.7778 18.05 1.41444 18.05 1.41444 6.33333C1.39742 5.91115 1.69505 5.54137 2.11111 5.46778ZM28.2889 18.05 14.7778 18.05 14.7778 34.5167C14.9046 34.5139 15.0285 34.4774 15.1367 34.4111 17.5222 33.0178 27.4444 26.3889 28.2678 18.05Z" fill="#0078D4" transform="matrix(1.02632 0 0 1 299 586)"/><path d="M29.83 37.5778 30.5267 35.2978 31.8567 34.5167 34.1789 35.53 35.6567 34.01 35.6567 33.7778 34.6011 31.6667 35.2344 30.2311 37.5567 29.3867 37.81 29.2811 37.81 27.17 37.5144 27.17 35.2344 26.4733 34.4744 25.1433 35.4667 22.8211 33.9467 21.3433 33.7778 21.3433 31.6667 22.3989 30.1889 21.7656 29.26 19.19 27.1489 19.19 27.0433 19.4856 26.3467 21.7656 24.8689 22.3989 22.3778 21.2589 20.9 22.7789 21.0478 23.0533 22.1456 25.1644 21.5544 26.6422 19.0211 27.5922 19.0211 29.7033 19.3167 29.8089 21.5967 30.5056 22.23 31.9833 21.1111 34.4111 22.6522 35.8889 22.9267 35.7411 25.0378 34.6222 26.5156 35.2133 27.6133 37.9578 29.7244 37.9578ZM26.3889 30.7589C25.1647 29.5929 25.1174 27.6553 26.2833 26.4311 27.4493 25.2069 29.3869 25.1596 30.6111 26.3256 31.8353 27.4915 31.8826 29.4291 30.7167 30.6533 30.6823 30.6894 30.6472 30.7245 30.6111 30.7589 29.4333 31.8957 27.5667 31.8957 26.3889 30.7589Z" fill="#949494" transform="matrix(1.02632 0 0 1 299 586)"/></g></svg>