<svg viewBox="0 0 18 18" class="" role="presentation" focusable="false" xmlns="http://www.w3.org/2000/svg" xmlns:xlink="http://www.w3.org/1999/xlink" id="FxSymbol0-010" data-type="1"><g><title>Icon-intune-331</title><path d="M6.6 12.2h4.8V17H6.6ZM1 5.8h4.8V1H1.67a.67.67 0 0 0-.67.67ZM1.67 17H5.8v-4.8H1v4.13a.67.67 0 0 0 .67.67ZM1 11.4h4.8V6.6H1ZM12.2 17h4.13a.67.67 0 0 0 .67-.67V12.2h-4.8Zm-5.6-5.6h4.8V6.6H6.6Zm5.6 0H17V6.6h-4.8Zm0-10.4v4.8H17V1.67a.67.67 0 0 0-.67-.67ZM6.6 5.8h4.8V1H6.6Z" fill="url(#91ab9948-f597-4162-a3e3-40123c89d00d)"></path></g><defs>
<linearGradient id="91ab9948-f597-4162-a3e3-40123c89d00d" x1="9" y1="17" x2="9" y2="1" gradientUnits="userSpaceOnUse"><stop offset="0" stop-color="#0078d4"></stop><stop offset=".16" stop-color="#1380da"></stop><stop offset=".53" stop-color="#3c91e5"></stop><stop offset=".82" stop-color="#559cec"></stop><stop offset="1" stop-color="#5ea0ef"></stop></linearGradient>
</defs>
</svg>