<svg viewBox="0 0 50 50" class="" role="presentation" focusable="false" xmlns="http://www.w3.org/2000/svg" xmlns:xlink="http://www.w3.org/1999/xlink" id="FxSymbol0-051" data-type="1"><g><title></title><path d="M25.001 50a4.575 4.575 0 0 1-3.261-1.352L1.351 28.26A4.64 4.64 0 0 1 0 25c0-1.214.492-2.402 1.351-3.26L21.74 1.352A4.578 4.578 0 0 1 25.001 0c1.231 0 2.39.48 3.261 1.352L48.648 21.74C49.521 22.608 50 23.767 50 25s-.479 2.392-1.353 3.263L28.262 48.648A4.578 4.578 0 0 1 25.001 50" class="msportalfx-svg-c15" fill="#59b4d9"></path><path d="M38.614 21.093a3.91 3.91 0 0 0-3.91 3.909c0 .792.239 1.527.645 2.143l-7.744 7.744a4.55 4.55 0 0 0-.656-.373V14.759c1.167-.676 1.961-1.924 1.961-3.37a3.91 3.91 0 0 0-7.818 0c0 1.446.794 2.694 1.96 3.37v19.756a4.48 4.48 0 0 0-.632.353l-7.753-7.753a3.88 3.88 0 0 0 .628-2.113 3.909 3.909 0 1 0-3.908 3.909 3.88 3.88 0 0 0 1.274-.23l8.15 8.15a4.552 4.552 0 1 0 8.387.032l8.173-8.172c.392.132.804.22 1.241.22a3.909 3.909 0 0 0 .002-7.818z" class="msportalfx-svg-c01" fill="#ffffff"></path><path opacity=".5" d="m24.065 12.149 1.784-1.784L40.47 24.983l-1.784 1.784z" class="msportalfx-svg-c01" fill="#ffffff"></path><path opacity=".5" d="m9.544 24.997 14.621-14.62 1.785 1.784-14.621 14.621z" class="msportalfx-svg-c01" fill="#ffffff"></path><path d="M27.665 38.613a2.71 2.71 0 1 1-5.42-.002 2.71 2.71 0 0 1 5.42.002m-.491-27.224a2.174 2.174 0 1 1-4.347 0 2.174 2.174 0 0 1 4.347 0M13.563 25a2.175 2.175 0 1 1-4.35-.002 2.175 2.175 0 0 1 4.35.002m27.225 0a2.175 2.175 0 1 1-4.35-.002 2.175 2.175 0 0 1 4.35.002" class="msportalfx-svg-c13" fill="#b8d432"></path><path opacity=".1" d="M28.262 1.352A4.578 4.578 0 0 0 25.001 0c-1.231 0-2.389.48-3.26 1.352L1.352 21.74A4.635 4.635 0 0 0 0 25c0 1.215.492 2.403 1.352 3.261l11.543 11.544L34.61 7.699l-6.348-6.347z" class="msportalfx-svg-c01" fill="#ffffff"></path><path d="m46.966 26.35-.002-.015c-.006-.021-.017-.037-.025-.056-.121-.274-.45-.28-.45-.28H33.497s-.326.006-.448.275c-.009.02-.021.037-.027.06l-.002.015a.58.58 0 0 0-.02.15v22.976c0 .478.499.5.499.5h12.986s.499-.021.499-.5V26.499a.569.569 0 0 0-.018-.149z" class="msportalfx-svg-c19" fill="#0072c6"></path><path d="M35 28h2v4h-2zm4 0h2v4h-2zm4 0h2v4h-2zm-8 6h2v4h-2zm4 0h2v4h-2zm4 0h2v4h-2zm-8 6h2v4h-2zm4 0h2v4h-2zm0 6h2v4h-2zm4-6h2v4h-2z" class="msportalfx-svg-c01" fill="#ffffff"></path><path opacity=".4" d="M47 25H33l-1 1v19l1-1V26h14v4l1-1v-3z" class="msportalfx-svg-c01" fill="#ffffff"></path></g><defs>
</defs>
</svg>