<svg viewBox="0 0 18 18" class="" role="presentation" focusable="false" xmlns="http://www.w3.org/2000/svg" xmlns:xlink="http://www.w3.org/1999/xlink" id="FxSymbol0-034" data-type="1"><g><title>Icon661_OfficeProPoliciesArtboard 1</title><path d="M5.608 13.663a.906.906 0 0 0-.447 1.687l3.193 1.81a1.738 1.738 0 0 0 .862.227 1.7 1.7 0 0 0 .481-.07l4.8-1.369a1.719 1.719 0 0 0 1.248-1.648v-.636Z" opacity=".2" class="msportalfx-svg-c01" fill="#ffffff"></path><path d="M5.608 13.663a.906.906 0 0 0-.447 1.687l3.193 1.81a1.738 1.738 0 0 0 .862.227 1.7 1.7 0 0 0 .481-.07l4.8-1.369a1.719 1.719 0 0 0 1.248-1.648v-.636Z" opacity=".12" class="msportalfx-svg-c01" fill="#ffffff"></path><path d="m9.677.567 1.29 2.951v10.259L9.7 17.43l4.8-1.368a1.72 1.72 0 0 0 1.245-1.65V3.586A1.718 1.718 0 0 0 14.5 1.933Z" fill="url(#91ab9948-f597-4162-a3e3-40123c89d05c)"></path><path d="m3.587 13.667 1.4-.759a1.224 1.224 0 0 0 .635-1.076V6.309a1.229 1.229 0 0 1 .807-1.152l4.533-1.639V2.273A1.776 1.776 0 0 0 9.677.567 1.733 1.733 0 0 0 9.191.5a1.805 1.805 0 0 0-.882.233l-5.188 2.96a1.712 1.712 0 0 0-.866 1.489v7.69a.9.9 0 0 0 1.332.8Z" fill="url(#91ab9948-f597-4162-a3e3-40123c89d05d)"></path><path d="M10.967 13.776H5.608a.9.9 0 0 0-.447 1.686l3.193 1.81a1.739 1.739 0 0 0 .862.228 1.7 1.7 0 0 0 .481-.07 1.748 1.748 0 0 0 1.27-1.687Z" fill="url(#91ab9948-f597-4162-a3e3-40123c89d05e)"></path></g><defs>
<linearGradient id="91ab9948-f597-4162-a3e3-40123c89d05c" x1="309.711" y1="-350.606" x2="309.711" y2="-367.25" gradientTransform="matrix(1 0 0 -1 -297 -351)" gradientUnits="userSpaceOnUse"><stop offset="0" stop-color="#ffb900"></stop><stop offset=".17" stop-color="#ef8400"></stop><stop offset=".31" stop-color="#e25c01"></stop><stop offset=".43" stop-color="#db4401"></stop><stop offset=".5" stop-color="#d83b01"></stop></linearGradient>
<linearGradient id="91ab9948-f597-4162-a3e3-40123c89d05d" x1="306.709" y1="-351.195" x2="297.896" y2="-363.78" gradientTransform="matrix(1 0 0 -1 -297 -351)" gradientUnits="userSpaceOnUse"><stop offset="0" stop-color="#800600"></stop><stop offset=".6" stop-color="#c72127"></stop><stop offset=".73" stop-color="#c13959"></stop><stop offset=".85" stop-color="#bc4b81"></stop><stop offset=".94" stop-color="#b95799"></stop><stop offset="1" stop-color="#b85ba2"></stop></linearGradient>
<linearGradient id="91ab9948-f597-4162-a3e3-40123c89d05e" x1="302.206" y1="-366.638" x2="313.712" y2="-366.638" gradientTransform="matrix(1 0 0 -1 -297 -351)" gradientUnits="userSpaceOnUse"><stop offset="0" stop-color="#f32b44"></stop><stop offset=".6" stop-color="#a4070a"></stop></linearGradient>
</defs>
</svg>