<svg viewBox="0 0 28 28" class="" role="presentation" focusable="false" xmlns="http://www.w3.org/2000/svg" xmlns:xlink="http://www.w3.org/1999/xlink" id="FxSymbol0-021" data-type="1"><g><path fill="url(#91ab9948-f597-4162-a3e3-40123c89d027)" d="M25.882 1H9.118A1.118 1.118 0 0 0 8 2.118v16.764A1.118 1.118 0 0 0 9.118 20h16.764A1.118 1.118 0 0 0 27 18.882V2.118A1.118 1.118 0 0 0 25.882 1z"></path><g fill-opacity=".03" opacity=".4"><path d="M8 4.176h14.074a1.75 1.75 0 0 1 1.75 1.75V20H8z"></path><path d="M8 4.477h14.153a1.37 1.37 0 0 1 1.37 1.37V20H8z"></path><path d="M8 4.547h14.084a1.369 1.369 0 0 1 1.37 1.369V20H8z"></path><path d="M8 4.617h14.065a1.317 1.317 0 0 1 1.317 1.318v14.064H8z"></path><path d="M8 4.688h14.048a1.264 1.264 0 0 1 1.265 1.264V20H8z"></path><path d="M8 4.758h13.98a1.26 1.26 0 0 1 1.261 1.26V20H8z"></path><path d="M8 4.839h13.953a1.207 1.207 0 0 1 1.207 1.207v13.953H8z"></path><path d="M8 4.922h13.925a1.153 1.153 0 0 1 1.153 1.153V20H8z"></path></g><path fill="url(#91ab9948-f597-4162-a3e3-40123c89d028)" d="M21.882 5H5.118A1.118 1.118 0 0 0 4 6.118v16.764A1.118 1.118 0 0 0 5.118 24h16.764A1.118 1.118 0 0 0 23 22.882V6.118A1.118 1.118 0 0 0 21.882 5z"></path><g fill-opacity=".03" opacity=".4"><path d="M4 8.176h14.074a1.75 1.75 0 0 1 1.75 1.75V24H4z"></path><path d="M4 8.477h14.153a1.37 1.37 0 0 1 1.37 1.37V24H4z"></path><path d="M4 8.547h14.084a1.369 1.369 0 0 1 1.37 1.369V24H4z"></path><path d="M4 8.617h14.065a1.317 1.317 0 0 1 1.317 1.318v14.064H4z"></path><path d="M4 8.688h14.048a1.264 1.264 0 0 1 1.265 1.264V24H4z"></path><path d="M4 8.758h13.98a1.26 1.26 0 0 1 1.261 1.26V24H4z"></path><path d="M4 8.839h13.953a1.207 1.207 0 0 1 1.207 1.207v13.953H4z"></path><path d="M4 8.922h13.925a1.153 1.153 0 0 1 1.153 1.153V24H4z"></path></g><path fill="url(#91ab9948-f597-4162-a3e3-40123c89d029)" d="M17.882 9H1.118A1.118 1.118 0 0 0 0 10.118v16.764A1.118 1.118 0 0 0 1.118 28h16.764A1.118 1.118 0 0 0 19 26.882V10.118A1.118 1.118 0 0 0 17.882 9z"></path><g opacity=".4"><rect width="5.356" height="5.356" x="4.322" y="13.378" opacity=".05" rx=".5"></rect><rect width="5.071" height="5.071" x="4.464" y="13.521" opacity=".05" rx=".5"></rect><rect width="4.897" height="4.897" x="4.551" y="13.607" opacity=".05" rx=".5"></rect><rect width="4.736" height="4.736" x="4.632" y="13.688" opacity=".05" rx=".5"></rect><rect width="4.543" height="4.543" x="4.729" y="13.785" opacity=".05" rx=".5"></rect><rect width="5.356" height="5.356" x="4.322" y="18.385" opacity=".05" rx=".5"></rect><rect width="5.071" height="5.071" x="4.464" y="18.527" opacity=".05" rx=".5"></rect><rect width="4.897" height="4.897" x="4.551" y="18.614" opacity=".05" rx=".5"></rect><rect width="4.736" height="4.736" x="4.632" y="18.695" opacity=".05" rx=".5"></rect><rect width="4.543" height="4.543" x="4.729" y="18.791" opacity=".05" rx=".5"></rect><rect width="5.353" height="5.353" x="9.321" y="13.38" opacity=".05" rx=".5"></rect><rect width="5.069" height="5.069" x="9.463" y="13.522" opacity=".05" rx=".5"></rect><rect width="4.895" height="4.895" x="9.55" y="13.609" opacity=".05" rx=".5"></rect><rect width="4.734" height="4.734" x="9.631" y="13.689" opacity=".05" rx=".5"></rect><rect width="4.54" height="4.54" x="9.727" y="13.786" opacity=".05" rx=".5"></rect><rect width="5.353" height="5.353" x="9.321" y="18.386" opacity=".05" rx=".5"></rect><rect width="5.069" height="5.069" x="9.463" y="18.528" opacity=".05" rx=".5"></rect><rect width="4.895" height="4.895" x="9.55" y="18.615" opacity=".05" rx=".5"></rect><rect width="4.734" height="4.734" x="9.631" y="18.696" opacity=".05" rx=".5"></rect><rect width="4.54" height="4.54" x="9.727" y="18.793" opacity=".05" rx=".5"></rect></g><path d="M5 14h4v4H5zm0 5v4h4v-4zm5 0v4h4v-4zm4-1v-4h-4v4z" class="msportalfx-svg-c01" fill="#ffffff"></path></g><defs>
<linearGradient id="91ab9948-f597-4162-a3e3-40123c89d027" x1="314.274" x2="304.438" y1="-370.769" y2="-353.733" gradientTransform="matrix(1 0 0 -1 -292 -352)" gradientUnits="userSpaceOnUse"><stop offset="0" stop-color="#0c59a4"></stop><stop offset="1" stop-color="#0078d4"></stop></linearGradient>
<linearGradient id="91ab9948-f597-4162-a3e3-40123c89d028" x1="310.274" x2="300.438" y1="-374.769" y2="-357.733" gradientTransform="matrix(1 0 0 -1 -292 -352)" gradientUnits="userSpaceOnUse"><stop offset="0" stop-color="#0078d4"></stop><stop offset="1" stop-color="#28afea"></stop></linearGradient>
<linearGradient id="91ab9948-f597-4162-a3e3-40123c89d029" x1="306.274" x2="296.438" y1="-378.769" y2="-361.733" gradientTransform="matrix(1 0 0 -1 -292 -352)" gradientUnits="userSpaceOnUse"><stop offset="0" stop-color="#1493df"></stop><stop offset="1" stop-color="#50e6ff"></stop></linearGradient>
</defs>
</svg>